<svg width="118" height="37" viewBox="0 0 118 37" fill="none" xmlns="http://www.w3.org/2000/svg">
<g clip-path="url(#clip0_114_8238)" filter="url(#filter0_d_114_8238)">
<path fill-rule="evenodd" clip-rule="evenodd" d="M31.0029 16.3822V17.4031L35.5363 18.0778L36.8417 17.3506L40.1667 7.23308L39.7725 4.80333L37.9598 4.65649L37.1907 5.7997L31.0029 16.3822Z" fill="url(#paint0_radial_114_8238)"/>
<path opacity="0.5" fill-rule="evenodd" clip-rule="evenodd" d="M35.5364 18.0778L39.7725 4.80334L40.1667 7.2331L36.8418 17.3507L35.5364 18.0778Z" fill="url(#paint1_radial_114_8238)"/>
<path fill-rule="evenodd" clip-rule="evenodd" d="M31.0029 17.4031L37.9598 4.65649L37.1907 5.7997L31.0029 16.3822V17.4031Z" fill="url(#paint2_radial_114_8238)"/>
<path fill-rule="evenodd" clip-rule="evenodd" d="M46.9749 16.4521L47.243 17.7631L51.5083 18.1512L52.8137 17.424L52.9268 7.30644L52.5326 4.87669L49.9185 4.72986L49.4144 5.87307L46.9749 16.4521Z" fill="url(#paint3_radial_114_8238)"/>
<path opacity="0.5" fill-rule="evenodd" clip-rule="evenodd" d="M51.5083 18.1512L52.5326 4.87671L52.9268 7.30646L52.8137 17.424L51.5083 18.1512Z" fill="url(#paint4_radial_114_8238)"/>
<path fill-rule="evenodd" clip-rule="evenodd" d="M47.243 17.7631L49.9185 4.72986L49.4144 5.87307L46.9749 16.4521L47.243 17.7631Z" fill="url(#paint5_radial_114_8238)"/>
<path fill-rule="evenodd" clip-rule="evenodd" d="M85.6946 16.3822V17.4031L81.1612 18.0778L79.8558 17.3506L76.2627 7.23308L76.6569 4.80333L78.4729 4.65649L79.2419 5.7997L85.6946 16.3822Z" fill="url(#paint6_radial_114_8238)"/>
<path opacity="0.5" fill-rule="evenodd" clip-rule="evenodd" d="M81.1612 18.0778L76.6569 4.80334L76.2627 7.2331L79.8558 17.3507L81.1612 18.0778Z" fill="url(#paint7_radial_114_8238)"/>
<path fill-rule="evenodd" clip-rule="evenodd" d="M85.6947 17.4031L78.4729 4.65649L79.2419 5.7997L85.6947 16.3822V17.4031Z" fill="url(#paint8_radial_114_8238)"/>
<path fill-rule="evenodd" clip-rule="evenodd" d="M70.6177 16.3822L70.3527 17.6898L66.0843 18.0778L64.7821 17.3506L64.6658 7.23308L65.06 4.80333L67.6773 4.65649L68.1781 5.7997L70.6177 16.3822Z" fill="url(#paint9_radial_114_8238)"/>
<path opacity="0.5" fill-rule="evenodd" clip-rule="evenodd" d="M66.0843 18.0778L65.06 4.80334L64.6658 7.2331L64.7821 17.3507L66.0843 18.0778Z" fill="url(#paint10_radial_114_8238)"/>
<path fill-rule="evenodd" clip-rule="evenodd" d="M70.3527 17.6898L67.6772 4.65649L68.1781 5.7997L70.6177 16.3822L70.3527 17.6898Z" fill="url(#paint11_radial_114_8238)"/>
<path fill-rule="evenodd" clip-rule="evenodd" d="M12.9404 15.6027C12.9404 15.6027 23.988 22.4584 58.1646 22.4584C92.9165 22.4584 102.933 15.2321 102.933 15.2321L95.188 8.74695L20.6631 9.01964L12.9404 15.6027Z" fill="url(#paint12_radial_114_8238)"/>
<path fill-rule="evenodd" clip-rule="evenodd" d="M20.6631 9.01958C20.6631 9.01958 35.2133 13.2428 57.0208 13.2428C78.8283 13.2428 95.188 8.74689 95.188 8.74689C95.188 8.74689 80.8414 6.83105 56.2421 6.83105C31.5458 6.83105 20.6631 9.01958 20.6631 9.01958Z" fill="url(#paint13_radial_114_8238)"/>
<path fill-rule="evenodd" clip-rule="evenodd" d="M26.1948 9.03356C26.1948 9.03356 38.6092 12.0576 57.1758 12.0576C75.7424 12.0576 89.6528 8.80282 89.6528 8.80282C89.6528 8.80282 77.4388 7.17017 56.4908 7.17017C35.4652 7.17017 26.1948 9.03356 26.1948 9.03356Z" fill="url(#paint14_radial_114_8238)"/>
<path d="M58.1648 19.7769C41.5692 19.7769 31.5847 17.8576 26.1304 16.2494C20.2108 14.5014 18.1881 12.7254 18.1687 12.7079L18.2721 12.5751C18.3497 12.645 26.4729 19.6056 58.1648 19.6056C74.728 19.6056 85.0001 17.557 90.7032 15.8369C96.878 13.9735 99.169 12.0891 99.1916 12.0717L99.2918 12.208C99.2691 12.2255 96.9653 14.1273 90.7678 15.9977C85.0518 17.7213 74.7603 19.7769 58.1648 19.7769Z" fill="white"/>
<path d="M58.1648 17.2562C41.5693 17.2562 32.16 15.5956 27.1903 14.2007C21.7877 12.6869 20.3401 11.1871 20.282 11.1242L20.3951 10.9983C20.4532 11.0578 26.4924 17.0779 58.1648 17.0779C89.8793 17.0779 97.3079 10.6207 97.3789 10.5543L97.4823 10.6872C97.408 10.7536 95.6147 12.3548 89.8599 13.9769C84.5607 15.4733 74.7604 17.2562 58.1648 17.2562Z" fill="white"/>
<path fill-rule="evenodd" clip-rule="evenodd" d="M12.2427 16.3158L24.3178 5.92558L25.8784 5.88013L26.1951 7.69807L18.0104 17.6968L14.0683 17.1444L12.2427 16.3158Z" fill="url(#paint15_radial_114_8238)"/>
<path opacity="0.5" fill-rule="evenodd" clip-rule="evenodd" d="M18.0104 17.6968L14.0684 17.1444L25.8785 5.88013L26.1951 7.69807L18.0104 17.6968Z" fill="url(#paint16_linear_114_8238)"/>
<path fill-rule="evenodd" clip-rule="evenodd" d="M25.2258 19.7979V21.0285L30.7028 21.8465L32.2796 20.969L36.296 8.74686L35.8178 5.81367L33.627 5.63538L32.6996 7.01631L25.2258 19.7979Z" fill="url(#paint17_radial_114_8238)"/>
<path opacity="0.5" fill-rule="evenodd" clip-rule="evenodd" d="M30.7026 21.8466L35.8177 5.81372L36.2959 8.7469L32.2795 20.9691L30.7026 21.8466Z" fill="url(#paint18_linear_114_8238)"/>
<path fill-rule="evenodd" clip-rule="evenodd" d="M25.2258 21.0285L33.627 5.63538L32.6997 7.01631L25.2258 19.7979V21.0285Z" fill="url(#paint19_linear_114_8238)"/>
<path fill-rule="evenodd" clip-rule="evenodd" d="M44.1543 21.6578L44.4774 23.2415L49.6312 23.7064L51.2048 22.8289L51.3438 10.6103L50.8688 7.67358L47.7086 7.49878L47.1044 8.87972L44.1543 21.6578Z" fill="url(#paint20_radial_114_8238)"/>
<path opacity="0.5" fill-rule="evenodd" clip-rule="evenodd" d="M49.6311 23.7064L50.8687 7.67358L51.3437 10.6103L51.2047 22.8289L49.6311 23.7064Z" fill="url(#paint21_linear_114_8238)"/>
<path fill-rule="evenodd" clip-rule="evenodd" d="M44.4774 23.2415L47.7086 7.49878L47.1044 8.87972L44.1543 21.6578L44.4774 23.2415Z" fill="url(#paint22_linear_114_8238)"/>
<path fill-rule="evenodd" clip-rule="evenodd" d="M105.034 16.3158L92.9587 5.92558L91.3948 5.88013L91.0781 7.69807L98.8427 17.1828L103.208 17.1444L105.034 16.3158Z" fill="url(#paint23_radial_114_8238)"/>
<path opacity="0.5" fill-rule="evenodd" clip-rule="evenodd" d="M98.8428 17.1828L103.208 17.1444L91.3948 5.88013L91.0781 7.69807L98.8428 17.1828Z" fill="url(#paint24_linear_114_8238)"/>
<path fill-rule="evenodd" clip-rule="evenodd" d="M92.3705 19.7979V21.0285L86.8936 21.8465L85.1843 20.5915L80.9805 8.74686L81.4555 5.81367L83.6462 5.63538L84.5768 7.01631L92.3705 19.7979Z" fill="url(#paint25_radial_114_8238)"/>
<path opacity="0.5" fill-rule="evenodd" clip-rule="evenodd" d="M86.8936 21.8466L81.4555 5.81372L80.9805 8.7469L85.32 20.9691L86.8936 21.8466Z" fill="url(#paint26_linear_114_8238)"/>
<path fill-rule="evenodd" clip-rule="evenodd" d="M92.3705 21.0285L83.6462 5.63538L84.5768 7.01631L92.3705 19.7979V21.0285Z" fill="url(#paint27_linear_114_8238)"/>
<path fill-rule="evenodd" clip-rule="evenodd" d="M73.1189 21.6578L72.7958 23.2415L67.642 23.7064L66.0684 22.8289L65.9294 10.6103L66.4044 7.67358L69.5646 7.49878L70.172 8.87972L73.1189 21.6578Z" fill="url(#paint28_radial_114_8238)"/>
<path opacity="0.5" fill-rule="evenodd" clip-rule="evenodd" d="M67.642 23.7064L66.4044 7.67358L65.9294 10.6103L66.0684 22.8289L67.642 23.7064Z" fill="url(#paint29_linear_114_8238)"/>
<path fill-rule="evenodd" clip-rule="evenodd" d="M72.7957 23.2415L69.5645 7.49878L70.1719 8.87972L73.1188 21.6578L72.7957 23.2415Z" fill="url(#paint30_linear_114_8238)"/>
<path opacity="0.5" fill-rule="evenodd" clip-rule="evenodd" d="M25.8785 5.88013L26.1951 7.69807L24.3921 9.90058L25.2936 10.1243L20.6633 18.4939L18.0105 17.6968L14.0684 17.1444L25.8785 5.88013Z" fill="url(#paint31_linear_114_8238)"/>
<path opacity="0.5" fill-rule="evenodd" clip-rule="evenodd" d="M30.7026 21.8466L32.2795 20.9691L33.7141 21.0285L36.577 12.0577L36.0374 10.7222L35.585 10.6243L36.2959 8.7469L35.8177 5.81372L30.7026 21.8466Z" fill="url(#paint32_linear_114_8238)"/>
<path opacity="0.5" fill-rule="evenodd" clip-rule="evenodd" d="M49.6311 23.7064L50.8687 7.67358L51.3437 10.6103L51.3146 13.1449L51.893 13.1624L52.7298 22.4584L51.3437 22.364L51.2047 22.8289L49.6311 23.7064Z" fill="url(#paint33_linear_114_8238)"/>
<path opacity="0.5" fill-rule="evenodd" clip-rule="evenodd" d="M66.4045 7.67358L65.9295 10.6103L66.0297 12.9911L65.3738 13.026L64.5918 22.371L65.9295 22.3325L66.0685 22.8289L67.6421 23.7064L66.4045 7.67358Z" fill="url(#paint34_linear_114_8238)"/>
<path opacity="0.5" fill-rule="evenodd" clip-rule="evenodd" d="M81.4555 5.81372L80.9805 8.7469L81.4555 10.2747L80.9805 11.5053L83.6462 20.8257L86.8936 21.8466L81.4555 5.81372Z" fill="url(#paint35_linear_114_8238)"/>
<path opacity="0.5" fill-rule="evenodd" clip-rule="evenodd" d="M91.0781 7.69807L92.4773 9.40764L91.7793 9.6139L95.8991 18.1862L98.8428 17.1828L103.208 17.1444L91.3948 5.88013L91.0781 7.69807Z" fill="url(#paint36_linear_114_8238)"/>
<path fill-rule="evenodd" clip-rule="evenodd" d="M26.1951 21.1753L30.0144 14.2671L31.3909 14.5328L28.793 21.5598L26.1951 21.1753Z" fill="url(#paint37_linear_114_8238)"/>
<path fill-rule="evenodd" clip-rule="evenodd" d="M12.2427 16.3158L17.5031 11.7885L18.0169 12.0576L13.4027 16.8437L12.2427 16.3158Z" fill="url(#paint38_linear_114_8238)"/>
<path fill-rule="evenodd" clip-rule="evenodd" d="M45.7568 23.2414L46.975 16.8856H48.862L48.2093 23.5805L45.7568 23.2414Z" fill="url(#paint39_linear_114_8238)"/>
<path fill-rule="evenodd" clip-rule="evenodd" d="M69.1476 23.5806L68.5466 17.1828L70.4983 16.9766L71.7358 23.3009L69.1476 23.5806Z" fill="url(#paint40_linear_114_8238)"/>
<path fill-rule="evenodd" clip-rule="evenodd" d="M91.3171 21.1438L88.0084 15.3718L86.438 15.8857L88.5221 21.6018L91.3171 21.1438Z" fill="url(#paint41_linear_114_8238)"/>
<path fill-rule="evenodd" clip-rule="evenodd" d="M103.971 16.7983L99.2402 12.4807L100.177 12.1381L105.034 16.3158L103.971 16.7983Z" fill="url(#paint42_linear_114_8238)"/>
<path opacity="0.5" fill-rule="evenodd" clip-rule="evenodd" d="M105.034 15.9138L100.177 12.1381L92.7776 6.31715L91.3946 5.88364L91.0779 7.70158L92.4771 9.41115L91.7759 9.61742L86.8095 10.6872L84.5735 7.01985L83.6429 5.63892L81.4521 5.81372L80.9772 8.7504L81.4521 10.2782L81.8916 11.4424L71.0347 12.645L70.1655 8.88325L69.558 7.50231L66.3979 7.67711L65.9229 10.6138L66.0231 12.9946C60.4751 13.3617 57.0112 13.2463 51.3113 13.1484L51.3404 10.6138L50.8654 7.67711L47.7053 7.50231L47.0978 8.88325L46.1704 12.8967C46.1704 12.8967 39.498 12.4108 36.1375 11.8444L36.0309 10.7257L35.6657 10.6487L36.2894 8.75389L35.8144 5.81721L33.6236 5.64241L32.693 7.02335L30.3601 11.0123L25.287 10.1348L24.392 9.9006L26.195 7.69809L25.8784 5.88014L24.3177 5.92559L12.2426 16.3158L8 17.6373L28.4375 23.1786C28.4375 23.1786 53.7638 26.9089 86.089 23.703L110 16.7983L105.034 15.9138Z" fill="url(#paint43_linear_114_8238)"/>
</g>
<defs>
<filter id="filter0_d_114_8238" x="0" y="0.656494" width="118" height="36.3435" filterUnits="userSpaceOnUse" color-interpolation-filters="sRGB">
<feFlood flood-opacity="0" result="BackgroundImageFix"/>
<feColorMatrix in="SourceAlpha" type="matrix" values="0 0 0 0 0 0 0 0 0 0 0 0 0 0 0 0 0 0 127 0" result="hardAlpha"/>
<feOffset dy="4"/>
<feGaussianBlur stdDeviation="4"/>
<feComposite in2="hardAlpha" operator="out"/>
<feColorMatrix type="matrix" values="0 0 0 0 0 0 0 0 0 0 0 0 0 0 0 0 0 0 0.4 0"/>
<feBlend mode="normal" in2="BackgroundImageFix" result="effect1_dropShadow_114_8238"/>
<feBlend mode="normal" in="SourceGraphic" in2="effect1_dropShadow_114_8238" result="shape"/>
</filter>
<radialGradient id="paint0_radial_114_8238" cx="0" cy="0" r="1" gradientUnits="userSpaceOnUse" gradientTransform="translate(35.5844 11.3666) scale(5.45233 5.89919)">
<stop stop-color="#837AB1"/>
<stop offset="1" stop-color="#65531D"/>
</radialGradient>
<radialGradient id="paint1_radial_114_8238" cx="0" cy="0" r="1" gradientUnits="userSpaceOnUse" gradientTransform="translate(37.852 11.4396) scale(4.63612 5.01609)">
<stop stop-color="#4D4963"/>
<stop offset="1" stop-color="#A48B41"/>
</radialGradient>
<radialGradient id="paint2_radial_114_8238" cx="0" cy="0" r="1" gradientUnits="userSpaceOnUse" gradientTransform="translate(34.4807 11.0289) scale(4.83662 5.23302)">
<stop stop-color="#413482"/>
<stop offset="1" stop-color="#1F012E"/>
</radialGradient>
<radialGradient id="paint3_radial_114_8238" cx="0" cy="0" r="1" gradientUnits="userSpaceOnUse" gradientTransform="translate(49.9506 11.4395) scale(4.86435 5.26302)">
<stop stop-color="white"/>
<stop offset="1" stop-color="#604E1B"/>
</radialGradient>
<radialGradient id="paint4_radial_114_8238" cx="0" cy="0" r="1" gradientUnits="userSpaceOnUse" gradientTransform="translate(52.2182 11.5124) scale(4.36662 4.72449)">
<stop stop-color="#413482"/>
<stop offset="1" stop-color="#1F012E"/>
</radialGradient>
<radialGradient id="paint5_radial_114_8238" cx="0" cy="0" r="1" gradientUnits="userSpaceOnUse" gradientTransform="translate(48.4455 11.2465) scale(4.3845 4.74386)">
<stop stop-color="#413482"/>
<stop offset="1" stop-color="#1F012E"/>
</radialGradient>
<radialGradient id="paint6_radial_114_8238" cx="0" cy="0" r="1" gradientUnits="userSpaceOnUse" gradientTransform="translate(80.9797 11.3666) rotate(180) scale(5.50906 5.96058)">
<stop offset="0.0323625" stop-color="#423A46"/>
<stop offset="0.340033" stop-color="#604F1C"/>
</radialGradient>
<radialGradient id="paint7_radial_114_8238" cx="0" cy="0" r="1" gradientUnits="userSpaceOnUse" gradientTransform="translate(78.7122 11.4396) rotate(180) scale(4.67037 5.05315)">
<stop stop-color="#F8CE52"/>
<stop offset="1" stop-color="#F8CE52"/>
</radialGradient>
<radialGradient id="paint8_radial_114_8238" cx="0" cy="0" r="1" gradientUnits="userSpaceOnUse" gradientTransform="translate(82.0835 11.0289) rotate(180) scale(4.88538 5.28578)">
<stop offset="0.428127" stop-color="#AF9E69"/>
<stop offset="0.538394" stop-color="#604F1C"/>
</radialGradient>
<radialGradient id="paint9_radial_114_8238" cx="0" cy="0" r="1" gradientUnits="userSpaceOnUse" gradientTransform="translate(66.648 5.92796) rotate(68.1437) scale(6.84969 7.44657)">
<stop stop-color="#887439"/>
<stop offset="1" stop-color="#1F012E"/>
</radialGradient>
<radialGradient id="paint10_radial_114_8238" cx="0" cy="0" r="1" gradientUnits="userSpaceOnUse" gradientTransform="translate(65.3749 11.4396) rotate(180) scale(4.36656 4.72449)">
<stop stop-color="#63552C"/>
<stop offset="1" stop-color="#1F012E"/>
</radialGradient>
<radialGradient id="paint11_radial_114_8238" cx="0" cy="0" r="1" gradientUnits="userSpaceOnUse" gradientTransform="translate(69.1475 11.1737) rotate(180) scale(4.38451 4.74385)">
<stop stop-color="#413482"/>
<stop offset="1" stop-color="#1F012E"/>
</radialGradient>
<radialGradient id="paint12_radial_114_8238" cx="0" cy="0" r="1" gradientUnits="userSpaceOnUse" gradientTransform="translate(57.9368 15.6034) scale(32.1315 34.7649)">
<stop stop-color="#754B4B"/>
<stop offset="1" stop-color="#9E8581"/>
</radialGradient>
<radialGradient id="paint13_radial_114_8238" cx="0" cy="0" r="1" gradientUnits="userSpaceOnUse" gradientTransform="translate(57.9255 10.0373) scale(26.4324 28.5987)">
<stop stop-color="#858597"/>
<stop offset="1" stop-color="#55575A"/>
</radialGradient>
<radialGradient id="paint14_radial_114_8238" cx="0" cy="0" r="1" gradientUnits="userSpaceOnUse" gradientTransform="translate(57.9254 9.61411) scale(22.4929 24.3363)">
<stop stop-color="white"/>
<stop offset="1" stop-color="#EFFFFF"/>
</radialGradient>
<radialGradient id="paint15_radial_114_8238" cx="0" cy="0" r="1" gradientUnits="userSpaceOnUse" gradientTransform="translate(19.2192 11.7892) scale(6.26518 6.77866)">
<stop stop-color="#DABA5D"/>
<stop offset="1" stop-color="#705300"/>
</radialGradient>
<linearGradient id="paint16_linear_114_8238" x1="14.0674" y1="11.7892" x2="26.1962" y2="11.7892" gradientUnits="userSpaceOnUse">
<stop/>
<stop offset="1"/>
</linearGradient>
<radialGradient id="paint17_radial_114_8238" cx="0" cy="0" r="1" gradientUnits="userSpaceOnUse" gradientTransform="translate(30.7608 13.7409) scale(6.58536 7.12508)">
<stop stop-color="white"/>
<stop offset="1" stop-color="#E3B93C"/>
</radialGradient>
<linearGradient id="paint18_linear_114_8238" x1="30.7042" y1="13.829" x2="36.2947" y2="13.829" gradientUnits="userSpaceOnUse">
<stop/>
<stop offset="1" stop-color="#E3B93C"/>
</linearGradient>
<linearGradient id="paint19_linear_114_8238" x1="25.2269" y1="13.333" x2="33.6284" y2="13.333" gradientUnits="userSpaceOnUse">
<stop/>
<stop offset="0.0867" stop-color="#01040A"/>
<stop offset="0.2335" stop-color="#040F25"/>
<stop offset="0.4227" stop-color="#082150"/>
<stop offset="0.6469" stop-color="#0E3B8C"/>
<stop offset="0.8978" stop-color="#165AD8"/>
<stop offset="1" stop-color="#1968F9"/>
</linearGradient>
<radialGradient id="paint20_radial_114_8238" cx="0" cy="0" r="1" gradientUnits="userSpaceOnUse" gradientTransform="translate(47.7498 15.6033) scale(5.87514 6.35665)">
<stop stop-color="white"/>
<stop offset="1" stop-color="#F8CE52"/>
</radialGradient>
<linearGradient id="paint21_linear_114_8238" x1="49.6318" y1="15.6914" x2="51.3449" y2="15.6914" gradientUnits="userSpaceOnUse">
<stop/>
<stop offset="1" stop-color="#E3B93C"/>
</linearGradient>
<linearGradient id="paint22_linear_114_8238" x1="44.1545" y1="15.3703" x2="47.7093" y2="15.3703" gradientUnits="userSpaceOnUse">
<stop/>
<stop offset="0.0867" stop-color="#01040A"/>
<stop offset="0.2335" stop-color="#040F25"/>
<stop offset="0.4227" stop-color="#082150"/>
<stop offset="0.6469" stop-color="#0E3B8C"/>
<stop offset="0.8978" stop-color="#165AD8"/>
<stop offset="1" stop-color="#1968F9"/>
</linearGradient>
<radialGradient id="paint23_radial_114_8238" cx="0" cy="0" r="1" gradientUnits="userSpaceOnUse" gradientTransform="translate(98.0555 11.5316) rotate(180) scale(6.16284 6.66794)">
<stop stop-color="#F8CE52"/>
<stop offset="1" stop-color="#403432"/>
</radialGradient>
<linearGradient id="paint24_linear_114_8238" x1="103.207" y1="11.5316" x2="91.0785" y2="11.5316" gradientUnits="userSpaceOnUse">
<stop/>
<stop offset="1" stop-color="#E3B93C"/>
</linearGradient>
<radialGradient id="paint25_radial_114_8238" cx="0" cy="0" r="1" gradientUnits="userSpaceOnUse" gradientTransform="translate(86.6754 13.7409) rotate(180) scale(6.65389 7.19923)">
<stop stop-color="white"/>
<stop offset="1" stop-color="#E3B93C"/>
</radialGradient>
<linearGradient id="paint26_linear_114_8238" x1="86.8935" y1="13.829" x2="80.9799" y2="13.829" gradientUnits="userSpaceOnUse">
<stop stop-color="#4B4329"/>
<stop offset="1" stop-color="#E3B93C"/>
</linearGradient>
<linearGradient id="paint27_linear_114_8238" x1="92.3709" y1="13.333" x2="83.6462" y2="13.333" gradientUnits="userSpaceOnUse">
<stop/>
<stop offset="0.0867" stop-color="#01040A"/>
<stop offset="0.2335" stop-color="#040F25"/>
<stop offset="0.4227" stop-color="#082150"/>
<stop offset="0.6469" stop-color="#0E3B8C"/>
<stop offset="0.8978" stop-color="#165AD8"/>
<stop offset="1" stop-color="#1968F9"/>
</linearGradient>
<radialGradient id="paint28_radial_114_8238" cx="0" cy="0" r="1" gradientUnits="userSpaceOnUse" gradientTransform="translate(69.5249 15.6033) rotate(180) scale(5.87514 6.35665)">
<stop stop-color="white"/>
<stop offset="1" stop-color="#FBD565"/>
</radialGradient>
<linearGradient id="paint29_linear_114_8238" x1="67.6427" y1="15.6914" x2="65.9296" y2="15.6914" gradientUnits="userSpaceOnUse">
<stop stop-color="white"/>
<stop offset="1" stop-color="#231C09"/>
</linearGradient>
<linearGradient id="paint30_linear_114_8238" x1="73.12" y1="15.3703" x2="69.5652" y2="15.3703" gradientUnits="userSpaceOnUse">
<stop/>
<stop offset="0.0867" stop-color="#01040A"/>
<stop offset="0.2335" stop-color="#040F25"/>
<stop offset="0.4227" stop-color="#082150"/>
<stop offset="0.6469" stop-color="#0E3B8C"/>
<stop offset="0.8978" stop-color="#165AD8"/>
<stop offset="1" stop-color="#1968F9"/>
</linearGradient>
<linearGradient id="paint31_linear_114_8238" x1="14.0674" y1="12.187" x2="26.1962" y2="12.187" gradientUnits="userSpaceOnUse">
<stop/>
<stop offset="1" stop-color="#E3B93C"/>
</linearGradient>
<linearGradient id="paint32_linear_114_8238" x1="30.7042" y1="13.829" x2="36.5766" y2="13.829" gradientUnits="userSpaceOnUse">
<stop stop-color="#F8CE52"/>
<stop offset="1" stop-color="#332601"/>
</linearGradient>
<linearGradient id="paint33_linear_114_8238" x1="49.6318" y1="15.6915" x2="52.7293" y2="15.6915" gradientUnits="userSpaceOnUse">
<stop stop-color="#7F4556"/>
<stop offset="1" stop-color="#612C73"/>
</linearGradient>
<linearGradient id="paint34_linear_114_8238" x1="64.5921" y1="15.6915" x2="67.6428" y2="15.6915" gradientUnits="userSpaceOnUse">
<stop stop-color="#7F4556"/>
<stop offset="1" stop-color="#612C73"/>
</linearGradient>
<linearGradient id="paint35_linear_114_8238" x1="80.9799" y1="13.829" x2="86.8936" y2="13.829" gradientUnits="userSpaceOnUse">
<stop stop-color="#7F4556"/>
<stop offset="1" stop-color="#612C73"/>
</linearGradient>
<linearGradient id="paint36_linear_114_8238" x1="91.0786" y1="12.0328" x2="103.207" y2="12.0328" gradientUnits="userSpaceOnUse">
<stop stop-color="#7F4556"/>
<stop offset="1" stop-color="#612C73"/>
</linearGradient>
<linearGradient id="paint37_linear_114_8238" x1="28.7934" y1="21.5608" x2="28.7934" y2="14.2656" gradientUnits="userSpaceOnUse">
<stop/>
<stop offset="1" stop-color="#392B00"/>
</linearGradient>
<linearGradient id="paint38_linear_114_8238" x1="15.1297" y1="16.8434" x2="15.1297" y2="11.7892" gradientUnits="userSpaceOnUse">
<stop/>
<stop offset="1"/>
</linearGradient>
<linearGradient id="paint39_linear_114_8238" x1="47.3089" y1="23.5791" x2="47.3089" y2="16.8863" gradientUnits="userSpaceOnUse">
<stop/>
<stop offset="1" stop-color="#725A12"/>
</linearGradient>
<linearGradient id="paint40_linear_114_8238" x1="70.1405" y1="23.5789" x2="70.1405" y2="16.9752" gradientUnits="userSpaceOnUse">
<stop stop-color="#45402F"/>
<stop offset="1" stop-color="#1F012E"/>
</linearGradient>
<linearGradient id="paint41_linear_114_8238" x1="88.8769" y1="21.603" x2="88.8769" y2="15.3702" gradientUnits="userSpaceOnUse">
<stop/>
<stop offset="1" stop-color="#4F472F"/>
</linearGradient>
<linearGradient id="paint42_linear_114_8238" x1="102.136" y1="16.7973" x2="102.136" y2="12.1377" gradientUnits="userSpaceOnUse">
<stop offset="0.0833333"/>
<stop offset="0.859375" stop-color="#61532A"/>
</linearGradient>
<linearGradient id="paint43_linear_114_8238" x1="59.0006" y1="25.0016" x2="59.0006" y2="5.63636" gradientUnits="userSpaceOnUse">
<stop stop-color="#5E5E5E"/>
<stop offset="1" stop-color="#F8CE52"/>
</linearGradient>
<clipPath id="clip0_114_8238">
<rect width="102" height="20.3435" fill="white" transform="translate(8 4.65649)"/>
</clipPath>
</defs>
</svg>
