<svg width="576" height="344" viewBox="0 0 576 344" fill="none" xmlns="http://www.w3.org/2000/svg">
<g filter="url(#filter0_bii_114_9600)">
<path d="M3 3H573V293H571.897L532 326.085V327H159.414L143 341H21L3.62069 327H3V3Z" fill="url(#paint0_linear_114_9600)"/>
</g>
<g opacity="0.5">
<path opacity="0.5" d="M143.034 341.956H18.9264L2.14856 327.457V1.85669H573.852V292.223L532.353 328.083H159.112L143.034 341.956ZM19.9403 339.87H142.045L158.122 325.976H531.388L571.462 291.347V3.9428H4.56264V326.602L19.9403 339.87Z" fill="white"/>
</g>
<path opacity="0.5" d="M6.71115 2.8997C6.71115 4.506 5.21442 5.79939 3.35557 5.79939C1.49673 5.79939 0 4.506 0 2.8997C0 1.29339 1.49673 0 3.35557 0C5.21442 0 6.71115 1.29339 6.71115 2.8997Z" fill="white"/>
<path opacity="0.5" d="M535.636 327.019C535.636 328.625 534.14 329.919 532.281 329.919C530.422 329.919 528.925 328.625 528.925 327.019C528.925 325.413 530.422 324.119 532.281 324.119C534.116 324.14 535.636 325.434 535.636 327.019Z" fill="white"/>
<path opacity="0.5" d="M162.347 327.019C162.347 328.625 160.85 329.919 158.991 329.919C157.133 329.919 155.636 328.625 155.636 327.019C155.636 325.413 157.133 324.119 158.991 324.119C160.85 324.14 162.347 325.434 162.347 327.019Z" fill="white"/>
<path opacity="0.5" d="M146.076 341.1C146.076 342.707 144.579 344 142.721 344C140.862 344 139.365 342.707 139.365 341.1C139.365 339.494 140.862 338.201 142.721 338.201C144.579 338.201 146.076 339.494 146.076 341.1Z" fill="white"/>
<path opacity="0.5" d="M23.1269 341.1C23.1269 342.707 21.6302 344 19.7713 344C17.9125 344 16.4158 342.707 16.4158 341.1C16.4158 339.494 17.9125 338.201 19.7713 338.201C21.6302 338.201 23.1269 339.494 23.1269 341.1Z" fill="white"/>
<path opacity="0.5" d="M6.78354 326.977C6.78354 328.584 5.2868 329.877 3.42796 329.877C1.56912 329.877 0.0723877 328.584 0.0723877 326.977C0.0723877 325.371 1.56912 324.078 3.42796 324.078C5.2868 324.078 6.78354 325.371 6.78354 326.977Z" fill="white"/>
<path opacity="0.5" d="M576 292.369C576 293.975 574.503 295.268 572.644 295.268C570.786 295.268 569.289 293.975 569.289 292.369C569.289 290.762 570.786 289.469 572.644 289.469C574.503 289.469 576 290.762 576 292.369Z" fill="white"/>
<path opacity="0.5" d="M576 2.8997C576 4.506 574.503 5.79939 572.644 5.79939C570.786 5.79939 569.289 4.506 569.289 2.8997C569.289 1.29339 570.786 0 572.644 0C574.503 0 576 1.29339 576 2.8997Z" fill="white"/>
<path opacity="0.1" d="M561.781 12.2872V287.884L527.356 317.632H154.598H154.091L153.729 317.944L138.013 331.525H23.9235L14.2189 323.139V12.2872H561.781ZM562.988 11.2441H13.0118V323.577L23.4407 332.589H138.544L154.622 318.695H527.887L563.012 288.343V11.2441H562.988Z" fill="white"/>
<defs>
<filter id="filter0_bii_114_9600" x="-17" y="-17" width="610" height="378" filterUnits="userSpaceOnUse" color-interpolation-filters="sRGB">
<feFlood flood-opacity="0" result="BackgroundImageFix"/>
<feGaussianBlur in="BackgroundImage" stdDeviation="10"/>
<feComposite in2="SourceAlpha" operator="in" result="effect1_backgroundBlur_114_9600"/>
<feBlend mode="normal" in="SourceGraphic" in2="effect1_backgroundBlur_114_9600" result="shape"/>
<feColorMatrix in="SourceAlpha" type="matrix" values="0 0 0 0 0 0 0 0 0 0 0 0 0 0 0 0 0 0 127 0" result="hardAlpha"/>
<feOffset dx="5" dy="5"/>
<feGaussianBlur stdDeviation="2"/>
<feComposite in2="hardAlpha" operator="arithmetic" k2="-1" k3="1"/>
<feColorMatrix type="matrix" values="0 0 0 0 1 0 0 0 0 1 0 0 0 0 1 0 0 0 0.08 0"/>
<feBlend mode="normal" in2="shape" result="effect2_innerShadow_114_9600"/>
<feColorMatrix in="SourceAlpha" type="matrix" values="0 0 0 0 0 0 0 0 0 0 0 0 0 0 0 0 0 0 127 0" result="hardAlpha"/>
<feOffset dx="-5" dy="-5"/>
<feGaussianBlur stdDeviation="2"/>
<feComposite in2="hardAlpha" operator="arithmetic" k2="-1" k3="1"/>
<feColorMatrix type="matrix" values="0 0 0 0 1 0 0 0 0 1 0 0 0 0 1 0 0 0 0.04 0"/>
<feBlend mode="normal" in2="effect2_innerShadow_114_9600" result="effect3_innerShadow_114_9600"/>
</filter>
<linearGradient id="paint0_linear_114_9600" x1="72" y1="341" x2="477.708" y2="515.302" gradientUnits="userSpaceOnUse">
<stop stop-color="#35DBC7" stop-opacity="0.16"/>
<stop offset="1" stop-color="#35DBC7" stop-opacity="0"/>
</linearGradient>
</defs>
</svg>
