<svg id="visual" viewBox="0 0 1800 950" width="1800" height="950" xmlns="http://www.w3.org/2000/svg" xmlns:xlink="http://www.w3.org/1999/xlink" version="1.1"><rect width="1800" height="950" fill="#01579b"></rect><g><g transform="translate(864 795)"><path d="M0 -261.6L226.5 -130.8L226.5 130.8L0 261.6L-226.5 130.8L-226.5 -130.8Z" fill="#039be5"></path></g><g transform="translate(34 61)"><path d="M0 -259L224.3 -129.5L224.3 129.5L0 259L-224.3 129.5L-224.3 -129.5Z" fill="#039be5"></path></g><g transform="translate(124 708)"><path d="M0 -209L181 -104.5L181 104.5L0 209L-181 104.5L-181 -104.5Z" fill="#039be5"></path></g><g transform="translate(539 286)"><path d="M0 -185L160.2 -92.5L160.2 92.5L0 185L-160.2 92.5L-160.2 -92.5Z" fill="#039be5"></path></g><g transform="translate(1678 755)"><path d="M0 -218L188.8 -109L188.8 109L0 218L-188.8 109L-188.8 -109Z" fill="#039be5"></path></g><g transform="translate(1115 294)"><path d="M0 -166L143.8 -83L143.8 83L0 166L-143.8 83L-143.8 -83Z" fill="#039be5"></path></g></g></svg>