<svg width="600" height="208" viewBox="0 0 600 208" fill="none" xmlns="http://www.w3.org/2000/svg">
<path d="M594.093 208H122.111L114.565 202.56H2.95679V2.56885H425.923L452.806 10.2396H594.093V208ZM122.641 207.067H592.798V11.1728H452.275L425.393 3.51136H4.25109V201.626H115.096L122.641 207.067Z" fill="#1162FF"/>
<path d="M600 15.4015H592.314V40.3925H600V15.4015Z" fill="#35DBC7"/>
<path d="M600 43.632H592.314V45.7623H600V43.632Z" fill="#35DBC7"/>
<path d="M600 46.8145H592.314V48.9448H600V46.8145Z" fill="#35DBC7"/>
<path d="M600 50.0032H592.314V52.1335H600V50.0032Z" fill="#35DBC7"/>
<path d="M600 53.1851H592.314V55.3154H600V53.1851Z" fill="#35DBC7"/>
<path d="M8.96674 8.83398H0V9.87571H8.96674V8.83398Z" fill="#35DBC7"/>
<path d="M8.96674 65.8991H0V63.8261H8.96674V65.8991ZM8.96674 61.2322H0V59.1591H8.96674V61.2322ZM8.96674 56.56H0V54.487H8.96674V56.56ZM8.96674 51.8931H0V49.8201H8.96674V51.8931ZM8.96674 47.2262H0V45.1531H8.96674V47.2262ZM8.96674 42.554H0V40.481H8.96674V42.554ZM8.96674 37.8871H0V35.8141H8.96674V37.8871ZM8.96674 33.2202H0V31.1471H8.96674V33.2202ZM8.96674 28.548H0V26.475H8.96674V28.548ZM8.96674 23.8811H0V21.8081H8.96674V23.8811ZM8.96674 19.209H0V17.1359H8.96674V19.209ZM8.96674 14.542H0V12.469H8.96674V14.542Z" fill="#35DBC7"/>
<path d="M8.96674 68.494H0V69.5357H8.96674V68.494Z" fill="#35DBC7"/>
<path d="M68.2411 0H252.239L266.534 5.81283H68.2411V0ZM62.5536 0H54.3426V5.81283H62.5536V0ZM44.2358 0H35.3716V5.81283H44.2358V0Z" fill="#1162FF"/>
<path d="M7.10512 207.998H4.43738V204.58H7.10512V207.998ZM12.2981 204.574H9.63033V207.993H12.2981V204.574ZM17.4706 204.574H14.8029V207.993H17.4706V204.574ZM22.6636 204.574H19.9958V207.993H22.6636V204.574ZM27.8565 204.574H25.1888V207.993H27.8565V204.574ZM33.0495 204.574H30.3818V207.993H33.0495V204.574ZM38.2221 204.574H35.5543V207.993H38.2221V204.574ZM43.415 204.574H40.7473V207.993H43.415V204.574ZM48.608 204.574H45.9402V207.993H48.608V204.574ZM53.7805 204.574H51.1128V207.993H53.7805V204.574ZM58.9735 204.574H56.3057V207.993H58.9735V204.574ZM64.1664 204.574H61.4987V207.993H64.1664V204.574ZM69.3594 204.574H66.6916V207.993H69.3594V204.574ZM74.532 204.574H71.8642V207.993H74.532V204.574ZM79.7249 204.574H77.0572V207.993H79.7249V204.574ZM84.9179 204.574H82.2501V207.993H84.9179V204.574ZM90.0904 204.574H87.4227V207.993H90.0904V204.574ZM95.2834 204.574H92.6156V207.993H95.2834V204.574ZM100.476 204.574H97.8086V207.993H100.476V204.574ZM105.649 204.574H102.981V207.993H105.649V204.574ZM110.842 204.574H108.174V207.993H110.842V204.574Z" fill="#1162FF"/>
</svg>
