<svg width="639" height="252" viewBox="0 0 639 252" fill="none" xmlns="http://www.w3.org/2000/svg">
<g filter="url(#filter0_d_114_7846)">
<path d="M471.441 33.1233L471.71 33.2002H471.99H612.078V226H144.13L136.647 220.762L136.13 220.4H135.5H26.4614V26.0002H446.49L471.441 33.1233Z" stroke="#7B7B7B" stroke-opacity="0.08" stroke-width="4" shape-rendering="crispEdges"/>
</g>
<path d="M615.093 228H143.111L135.565 222.56H23.9568V22.5688H446.923L473.806 30.2396H615.093V228ZM143.641 227.067H613.798V31.1728H473.275L446.393 23.5114H25.2511V221.626H136.096L143.641 227.067Z" fill="#1162FF"/>
<path d="M621 35.4014H613.314V60.3924H621V35.4014Z" fill="#35DBC7"/>
<path d="M621 63.6319H613.314V65.7622H621V63.6319Z" fill="#35DBC7"/>
<path d="M621 66.8143H613.314V68.9447H621V66.8143Z" fill="#35DBC7"/>
<path d="M621 70.0032H613.314V72.1335H621V70.0032Z" fill="#35DBC7"/>
<path d="M621 73.1851H613.314V75.3154H621V73.1851Z" fill="#35DBC7"/>
<path d="M29.9667 28.834H21V29.8757H29.9667V28.834Z" fill="#35DBC7"/>
<path d="M29.9667 85.8991H21V83.8261H29.9667V85.8991ZM29.9667 81.2322H21V79.1591H29.9667V81.2322ZM29.9667 76.56H21V74.487H29.9667V76.56ZM29.9667 71.8931H21V69.8201H29.9667V71.8931ZM29.9667 67.2262H21V65.1531H29.9667V67.2262ZM29.9667 62.554H21V60.481H29.9667V62.554ZM29.9667 57.8871H21V55.8141H29.9667V57.8871ZM29.9667 53.2202H21V51.1471H29.9667V53.2202ZM29.9667 48.548H21V46.475H29.9667V48.548ZM29.9667 43.8811H21V41.8081H29.9667V43.8811ZM29.9667 39.209H21V37.1359H29.9667V39.209ZM29.9667 34.542H21V32.469H29.9667V34.542Z" fill="#35DBC7"/>
<path d="M29.9667 88.494H21V89.5357H29.9667V88.494Z" fill="#35DBC7"/>
<path d="M89.2411 20H273.239L287.534 25.8128H89.2411V20ZM83.5536 20H75.3426V25.8128H83.5536V20ZM65.2358 20H56.3716V25.8128H65.2358V20Z" fill="#1162FF"/>
<path d="M28.1052 227.998H25.4375V224.58H28.1052V227.998ZM33.2982 224.574H30.6305V227.993H33.2982V224.574ZM38.4708 224.574H35.803V227.993H38.4708V224.574ZM43.6637 224.574H40.996V227.993H43.6637V224.574ZM48.8567 224.574H46.1889V227.993H48.8567V224.574ZM54.0496 224.574H51.3819V227.993H54.0496V224.574ZM59.2222 224.574H56.5544V227.993H59.2222V224.574ZM64.4151 224.574H61.7474V227.993H64.4151V224.574ZM69.6081 224.574H66.9403V227.993H69.6081V224.574ZM74.7807 224.574H72.1129V227.993H74.7807V224.574ZM79.9736 224.574H77.3059V227.993H79.9736V224.574ZM85.1666 224.574H82.4988V227.993H85.1666V224.574ZM90.3595 224.574H87.6917V227.993H90.3595V224.574ZM95.5321 224.574H92.8643V227.993H95.5321V224.574ZM100.725 224.574H98.0573V227.993H100.725V224.574ZM105.918 224.574H103.25V227.993H105.918V224.574ZM111.091 224.574H108.423V227.993H111.091V224.574ZM116.284 224.574H113.616V227.993H116.284V224.574ZM121.476 224.574H118.809V227.993H121.476V224.574ZM126.649 224.574H123.981V227.993H126.649V224.574ZM131.842 224.574H129.174V227.993H131.842V224.574Z" fill="#1162FF"/>
<defs>
<filter id="filter0_d_114_7846" x="0.461426" y="0.000183105" width="637.617" height="252" filterUnits="userSpaceOnUse" color-interpolation-filters="sRGB">
<feFlood flood-opacity="0" result="BackgroundImageFix"/>
<feColorMatrix in="SourceAlpha" type="matrix" values="0 0 0 0 0 0 0 0 0 0 0 0 0 0 0 0 0 0 127 0" result="hardAlpha"/>
<feOffset/>
<feGaussianBlur stdDeviation="12"/>
<feComposite in2="hardAlpha" operator="out"/>
<feColorMatrix type="matrix" values="0 0 0 0 1 0 0 0 0 1 0 0 0 0 1 0 0 0 1 0"/>
<feBlend mode="normal" in2="BackgroundImageFix" result="effect1_dropShadow_114_7846"/>
<feBlend mode="normal" in="SourceGraphic" in2="effect1_dropShadow_114_7846" result="shape"/>
</filter>
</defs>
</svg>
