<svg width="32" height="32" viewBox="0 0 32 32" fill="none" xmlns="http://www.w3.org/2000/svg">
<g filter="url(#filter0_d_114_7734)">
<circle cx="16" cy="12" r="12" fill="url(#paint0_linear_114_7734)"/>
</g>
<path fill-rule="evenodd" clip-rule="evenodd" d="M20.1583 7.83836C20.4101 8.08964 20.6066 8.39065 20.7351 8.72211C20.8833 9.11535 20.9624 9.5312 20.9689 9.95132C21 10.4819 21 10.6538 21 12.0082V12.0083C21 13.3628 20.9928 13.5319 20.9689 14.0653C20.9606 14.48 20.8823 14.8892 20.7362 15.2773C20.6075 15.6088 20.411 15.9097 20.1592 16.1611C19.9075 16.4125 19.606 16.6087 19.2741 16.7372C18.8855 16.8825 18.4751 16.9611 18.0602 16.9695C17.5299 17 17.3561 17 16 17C14.6439 17 14.4746 16.9928 13.9398 16.9695C13.5241 16.9559 13.1137 16.8715 12.7265 16.72C12.3944 16.5917 12.0928 16.3956 11.841 16.1444C11.5891 15.8931 11.3925 15.5921 11.2638 15.2607C11.1177 14.872 11.0394 14.4629 11.0311 14.0481C11 13.5175 11 13.3451 11 11.9911C11 10.6366 11.0072 10.4675 11.0311 9.93413C11.0392 9.51987 11.1179 9.11001 11.2638 8.72211C11.3922 8.39057 11.5886 8.08948 11.8404 7.83817C12.0922 7.58687 12.3938 7.39089 12.7259 7.26281C13.1139 7.11677 13.5241 7.03801 13.9387 7.02994C14.469 7 14.6428 7 15.9989 7C17.355 7 17.5243 7.00665 18.0591 7.02994C18.474 7.03845 18.8845 7.11719 19.273 7.26281C19.605 7.39104 19.9066 7.58707 20.1583 7.83836ZM19.8861 14.943C19.9968 14.6432 20.0552 14.3266 20.0588 14.0071V14.0077H20.0649C20.0887 13.4776 20.0887 13.3323 20.0887 11.9819V11.9817C20.0887 10.6305 20.0826 10.4825 20.0588 9.9552C20.0536 9.63925 19.9952 9.32643 19.8861 9.02983C19.8026 8.81419 19.6749 8.61835 19.5112 8.45488C19.3475 8.29142 19.1513 8.16393 18.9354 8.08062C18.6385 7.97032 18.3247 7.91199 18.008 7.90818C17.471 7.87769 17.3322 7.87769 15.9789 7.87769C14.6256 7.87769 14.4773 7.88434 13.9492 7.90818C13.6327 7.9126 13.3193 7.97091 13.0224 8.08062C12.5843 8.24806 12.2372 8.59237 12.0679 9.02983C11.9572 9.32946 11.8987 9.64583 11.8952 9.96518C11.8657 10.5024 11.8657 10.6405 11.8657 11.9917C11.8657 13.3423 11.8713 13.4909 11.8952 14.0176C11.9003 14.3336 11.9587 14.6464 12.0679 14.943C12.1516 15.159 12.2799 15.3551 12.4443 15.5185C12.6087 15.6819 12.8057 15.809 13.0224 15.8917C13.3192 16.0019 13.6327 16.0602 13.9492 16.0641C14.4868 16.0946 14.6251 16.0946 15.9789 16.0946C17.3316 16.0946 17.4805 16.0885 18.008 16.0641C18.3247 16.06 18.6384 16.0017 18.9354 15.8917C19.1514 15.8085 19.3475 15.6812 19.5113 15.5178C19.675 15.3544 19.8027 15.1586 19.8861 14.943ZM18.6655 9.92749C18.9961 9.92749 19.2641 9.65989 19.2641 9.32979C19.2641 8.9997 18.9961 8.7321 18.6655 8.7321C18.3349 8.7321 18.0669 8.9997 18.0669 9.32979C18.0669 9.65989 18.3349 9.92749 18.6655 9.92749ZM15.9961 9.42407C15.3151 9.42407 14.662 9.69418 14.1805 10.175C13.6989 10.6558 13.4284 11.3079 13.4284 11.9878C13.4284 12.6678 13.6989 13.3199 14.1805 13.8007C14.662 14.2815 15.3151 14.5516 15.9961 14.5516C16.6771 14.5516 17.3303 14.2815 17.8118 13.8007C18.2933 13.3199 18.5639 12.6678 18.5639 11.9878C18.5639 11.3079 18.2933 10.6558 17.8118 10.175C17.3303 9.69418 16.6771 9.42407 15.9961 9.42407ZM15.9961 13.6528C15.5537 13.6528 15.1294 13.4774 14.8166 13.165C14.5037 12.8526 14.328 12.429 14.328 11.9873C14.328 11.5455 14.5037 11.1219 14.8166 10.8095C15.1294 10.4972 15.5537 10.3217 15.9961 10.3217C16.4385 10.3217 16.8628 10.4972 17.1757 10.8095C17.4885 11.1219 17.6643 11.5455 17.6643 11.9873C17.6643 12.429 17.4885 12.8526 17.1757 13.165C16.8628 13.4774 16.4385 13.6528 15.9961 13.6528Z" fill="white"/>
<defs>
<filter id="filter0_d_114_7734" x="0" y="0" width="32" height="32" filterUnits="userSpaceOnUse" color-interpolation-filters="sRGB">
<feFlood flood-opacity="0" result="BackgroundImageFix"/>
<feColorMatrix in="SourceAlpha" type="matrix" values="0 0 0 0 0 0 0 0 0 0 0 0 0 0 0 0 0 0 127 0" result="hardAlpha"/>
<feOffset dy="4"/>
<feGaussianBlur stdDeviation="2"/>
<feComposite in2="hardAlpha" operator="out"/>
<feColorMatrix type="matrix" values="0 0 0 0 0 0 0 0 0 0 0 0 0 0 0 0 0 0 0.16 0"/>
<feBlend mode="normal" in2="BackgroundImageFix" result="effect1_dropShadow_114_7734"/>
<feBlend mode="normal" in="SourceGraphic" in2="effect1_dropShadow_114_7734" result="shape"/>
</filter>
<linearGradient id="paint0_linear_114_7734" x1="1.12" y1="12" x2="30.76" y2="12" gradientUnits="userSpaceOnUse">
<stop stop-color="#35DBC7"/>
<stop offset="1" stop-color="#1162FF"/>
</linearGradient>
</defs>
</svg>
