<svg id="visual" viewBox="0 0 1800 950" width="1800" height="950" xmlns="http://www.w3.org/2000/svg" xmlns:xlink="http://www.w3.org/1999/xlink" version="1.1"><path d="M0 153L106 106L212 153L318 172L424 96L529 144L635 96L741 96L847 87L953 125L1059 106L1165 134L1271 144L1376 77L1482 153L1588 144L1694 115L1800 163L1800 0L1694 0L1588 0L1482 0L1376 0L1271 0L1165 0L1059 0L953 0L847 0L741 0L635 0L529 0L424 0L318 0L212 0L106 0L0 0Z" fill="#03a9f4"></path><path d="M0 220L106 172L212 201L318 248L424 210L529 220L635 153L741 144L847 144L953 229L1059 144L1165 210L1271 248L1376 134L1482 191L1588 201L1694 163L1800 277L1800 161L1694 113L1588 142L1482 151L1376 75L1271 142L1165 132L1059 104L953 123L847 85L741 94L635 94L529 142L424 94L318 170L212 151L106 104L0 151Z" fill="#029be5"></path><path d="M0 305L106 267L212 258L318 305L424 267L529 277L635 229L741 258L847 248L953 324L1059 248L1165 334L1271 296L1376 191L1482 286L1588 305L1694 239L1800 324L1800 275L1694 161L1588 199L1482 189L1376 132L1271 246L1165 208L1059 142L953 227L847 142L741 142L635 151L529 218L424 208L318 246L212 199L106 170L0 218Z" fill="#028dd7"></path><path d="M0 372L106 448L212 448L318 495L424 438L529 391L635 429L741 381L847 381L953 486L1059 410L1165 486L1271 495L1376 391L1482 400L1588 438L1694 391L1800 514L1800 322L1694 237L1588 303L1482 284L1376 189L1271 294L1165 332L1059 246L953 322L847 246L741 256L635 227L529 275L424 265L318 303L212 256L106 265L0 303Z" fill="#027fc8"></path><path d="M0 695L106 638L212 685L318 780L424 600L529 752L635 581L741 685L847 628L953 790L1059 685L1165 742L1271 752L1376 714L1482 666L1588 552L1694 581L1800 752L1800 512L1694 389L1588 436L1482 398L1376 389L1271 493L1165 484L1059 408L953 484L847 379L741 379L635 427L529 389L424 436L318 493L212 446L106 446L0 370Z" fill="#0271b9"></path><path d="M0 866L106 875L212 894L318 894L424 885L529 875L635 913L741 913L847 894L953 904L1059 913L1165 875L1271 866L1376 875L1482 875L1588 847L1694 875L1800 904L1800 750L1694 579L1588 550L1482 664L1376 712L1271 750L1165 740L1059 683L953 788L847 626L741 683L635 579L529 750L424 598L318 778L212 683L106 636L0 693Z" fill="#0264aa"></path><path d="M0 951L106 951L212 951L318 951L424 951L529 951L635 951L741 951L847 951L953 951L1059 951L1165 951L1271 951L1376 951L1482 951L1588 951L1694 951L1800 951L1800 902L1694 873L1588 845L1482 873L1376 873L1271 864L1165 873L1059 911L953 902L847 892L741 911L635 911L529 873L424 883L318 892L212 892L106 873L0 864Z" fill="#01579b"></path></svg>