<svg width="32" height="32" viewBox="0 0 32 32" fill="none" xmlns="http://www.w3.org/2000/svg">
<g filter="url(#filter0_d_114_7727)">
<circle cx="16" cy="12" r="12" fill="url(#paint0_linear_114_7727)"/>
</g>
<path d="M21 8.94895C20.6323 9.10931 20.2372 9.21766 19.8219 9.26663C20.2504 9.0143 20.571 8.61716 20.7239 8.14932C20.3213 8.38465 19.8806 8.5503 19.4211 8.63906C19.1121 8.31438 18.7028 8.09918 18.2568 8.02687C17.8108 7.95455 17.353 8.02917 16.9545 8.23914C16.556 8.44911 16.239 8.78268 16.0529 9.18806C15.8668 9.59344 15.8219 10.048 15.9251 10.481C15.1093 10.4407 14.3113 10.2321 13.5828 9.86859C12.8542 9.50512 12.2115 8.99496 11.6963 8.37122C11.5201 8.67027 11.4188 9.01699 11.4188 9.38625C11.4186 9.71867 11.5018 10.046 11.661 10.3392C11.8202 10.6324 12.0505 10.8824 12.3314 11.067C12.0056 11.0568 11.687 10.9702 11.4021 10.8143V10.8403C11.4021 11.3066 11.5659 11.7584 11.8659 12.1193C12.1659 12.4802 12.5835 12.7278 13.0479 12.8201C12.7457 12.9006 12.4288 12.9125 12.1213 12.8548C12.2523 13.2559 12.5075 13.6068 12.8512 13.8581C13.1949 14.1094 13.6098 14.2487 14.038 14.2564C13.3112 14.8178 12.4137 15.1224 11.4897 15.1211C11.3261 15.1211 11.1625 15.1117 11 15.0929C11.9378 15.6863 13.0296 16.0012 14.1445 16C17.9189 16 19.9822 12.9237 19.9822 10.2557C19.9822 10.169 19.98 10.0814 19.976 9.99475C20.3774 9.70913 20.7238 9.35543 20.9991 8.95025L21 8.94895V8.94895Z" fill="white"/>
<defs>
<filter id="filter0_d_114_7727" x="0" y="0" width="32" height="32" filterUnits="userSpaceOnUse" color-interpolation-filters="sRGB">
<feFlood flood-opacity="0" result="BackgroundImageFix"/>
<feColorMatrix in="SourceAlpha" type="matrix" values="0 0 0 0 0 0 0 0 0 0 0 0 0 0 0 0 0 0 127 0" result="hardAlpha"/>
<feOffset dy="4"/>
<feGaussianBlur stdDeviation="2"/>
<feComposite in2="hardAlpha" operator="out"/>
<feColorMatrix type="matrix" values="0 0 0 0 0 0 0 0 0 0 0 0 0 0 0 0 0 0 0.16 0"/>
<feBlend mode="normal" in2="BackgroundImageFix" result="effect1_dropShadow_114_7727"/>
<feBlend mode="normal" in="SourceGraphic" in2="effect1_dropShadow_114_7727" result="shape"/>
</filter>
<linearGradient id="paint0_linear_114_7727" x1="1.12" y1="12" x2="30.76" y2="12" gradientUnits="userSpaceOnUse">
<stop stop-color="#35DBC7"/>
<stop offset="1" stop-color="#1162FF"/>
</linearGradient>
</defs>
</svg>
